<mxfile host="app.diagrams.net" modified="2021-01-22T21:50:17.762Z" agent="5.0 (Windows NT 10.0; Win64; x64) AppleWebKit/537.36 (KHTML, like Gecko) Chrome/86.0.4240.198 Safari/537.36 OPR/72.0.3815.473" etag="TfkwSi0KaC9qTWxPDLVQ" version="14.0.4" type="github">
  <diagram id="C5RBs43oDa-KdzZeNtuy" name="Page-1">
    <mxGraphModel dx="3424" dy="1284" grid="1" gridSize="10" guides="1" tooltips="1" connect="1" arrows="1" fold="1" page="0" pageScale="1" pageWidth="827" pageHeight="1169" math="0" shadow="0">
      <root>
        <mxCell id="WIyWlLk6GJQsqaUBKTNV-0" />
        <mxCell id="WIyWlLk6GJQsqaUBKTNV-1" parent="WIyWlLk6GJQsqaUBKTNV-0" />
        <mxCell id="o0AXf6mT2X_4u5LiD2bt-0" value="" style="rounded=0;whiteSpace=wrap;html=1;fillColor=#f8cecc;strokeColor=#b85450;" vertex="1" parent="WIyWlLk6GJQsqaUBKTNV-1">
          <mxGeometry x="-1820" y="-170" width="400" height="566.67" as="geometry" />
        </mxCell>
        <mxCell id="o0AXf6mT2X_4u5LiD2bt-1" value="Programm-Start" style="rounded=1;whiteSpace=wrap;html=1;arcSize=50;" vertex="1" parent="WIyWlLk6GJQsqaUBKTNV-1">
          <mxGeometry x="-1676" y="-360" width="112" height="40" as="geometry" />
        </mxCell>
        <mxCell id="o0AXf6mT2X_4u5LiD2bt-3" style="edgeStyle=orthogonalEdgeStyle;rounded=0;orthogonalLoop=1;jettySize=auto;html=1;exitX=0.5;exitY=1;exitDx=0;exitDy=0;entryX=0.5;entryY=0;entryDx=0;entryDy=0;" edge="1" parent="WIyWlLk6GJQsqaUBKTNV-1" source="o0AXf6mT2X_4u5LiD2bt-1" target="o0AXf6mT2X_4u5LiD2bt-6">
          <mxGeometry relative="1" as="geometry">
            <mxPoint x="-1620" y="-320" as="sourcePoint" />
            <mxPoint x="-1620" y="-270" as="targetPoint" />
          </mxGeometry>
        </mxCell>
        <mxCell id="o0AXf6mT2X_4u5LiD2bt-8" style="edgeStyle=orthogonalEdgeStyle;rounded=0;orthogonalLoop=1;jettySize=auto;html=1;exitX=0.5;exitY=1;exitDx=0;exitDy=0;entryX=0.5;entryY=0;entryDx=0;entryDy=0;" edge="1" parent="WIyWlLk6GJQsqaUBKTNV-1" source="o0AXf6mT2X_4u5LiD2bt-6" target="o0AXf6mT2X_4u5LiD2bt-0">
          <mxGeometry relative="1" as="geometry" />
        </mxCell>
        <mxCell id="o0AXf6mT2X_4u5LiD2bt-6" value="Daten sammeln" style="rounded=0;whiteSpace=wrap;html=1;" vertex="1" parent="WIyWlLk6GJQsqaUBKTNV-1">
          <mxGeometry x="-1680" y="-260" width="120" height="40" as="geometry" />
        </mxCell>
      </root>
    </mxGraphModel>
  </diagram>
</mxfile>
